<?xml version="1.0" encoding="UTF-8"?>
<svg width="20px" height="20px" viewBox="0 0 20 20" version="1.1" xmlns="http://www.w3.org/2000/svg" xmlns:xlink="http://www.w3.org/1999/xlink">
    <!-- Generator: Sketch 63.1 (92452) - https://sketch.com -->
    <title>ico/closer</title>
    <desc>Created with Sketch.</desc>
    <g id="ico/closer" stroke="none" stroke-width="1" fill-rule="evenodd">
        <path d="M6.12132034,4.70710678 L10.314,8.9 L14.5060967,4.70710678 C14.8966209,4.31658249 15.5297859,4.31658249 15.9203102,4.70710678 C16.3108345,5.09763107 16.3108345,5.73079605 15.9203102,6.12132034 L11.728,10.314 L15.9203102,14.5060967 C16.3108345,14.8966209 16.3108345,15.5297859 15.9203102,15.9203102 C15.5297859,16.3108345 14.8966209,16.3108345 14.5060967,15.9203102 L10.314,11.728 L6.12132034,15.9203102 C5.73079605,16.3108345 5.09763107,16.3108345 4.70710678,15.9203102 C4.31658249,15.5297859 4.31658249,14.8966209 4.70710678,14.5060967 L8.9,10.314 L4.70710678,6.12132034 C4.31658249,5.73079605 4.31658249,5.09763107 4.70710678,4.70710678 C5.09763107,4.31658249 5.73079605,4.31658249 6.12132034,4.70710678 Z" id="closer"></path>
    </g>
</svg>