<?xml version="1.0" encoding="UTF-8"?>
<svg width="10px" height="13px" viewBox="0 0 10 13" version="1.1" xmlns="http://www.w3.org/2000/svg" xmlns:xlink="http://www.w3.org/1999/xlink">
    <!-- Generator: Sketch 64 (93537) - https://sketch.com -->
    <title>download</title>
    <desc>Created with Sketch.</desc>
    <g id="Symbols" stroke="none" stroke-width="1" fill-rule="evenodd">
        <g id="ico/download" transform="translate(-5.000000, -3.000000)">
            <path d="M14,14 C14.5522847,14 15,14.4477153 15,15 C15,15.5522847 14.5522847,16 14,16 L6,16 C5.44771525,16 5,15.5522847 5,15 C5,14.4477153 5.44771525,14 6,14 L14,14 Z M10,3 C10.5522847,3 11,3.44771525 11,4 L11,8 L12.5857864,8 C13.1380712,8 13.5857864,8.44771525 13.5857864,9 C13.5857864,9.26521649 13.4804296,9.5195704 13.2928932,9.70710678 L10.7071068,12.2928932 C10.3165825,12.6834175 9.68341751,12.6834175 9.29289322,12.2928932 L6.70710678,9.70710678 C6.31658249,9.31658249 6.31658249,8.68341751 6.70710678,8.29289322 C6.89464316,8.10535684 7.14899707,8 7.41421356,8 L9,8 L9,4 C9,3.44771525 9.44771525,3 10,3 Z" id="download"></path>
        </g>
    </g>
</svg>