<?xml version="1.0" encoding="UTF-8"?>
<svg width="16px" height="16px" viewBox="0 0 16 16" version="1.1" xmlns="http://www.w3.org/2000/svg" xmlns:xlink="http://www.w3.org/1999/xlink">
    <!-- Generator: Sketch 64 (93537) - https://sketch.com -->
    <title>search</title>
    <desc>Created with Sketch.</desc>
    <g id="Symbols" stroke="none" stroke-width="1" fill-rule="evenodd">
        <g id="ico/search" transform="translate(-2.000000, -2.000000)">
            <path d="M8,2 C11.3137085,2 14,4.6862915 14,8 C14,9.47704791 13.4662797,10.8294388 12.5811745,11.8748373 L16.9748737,16.267767 C17.1701359,16.4630291 17.1701359,16.7796116 16.9748737,16.9748737 C16.7796116,17.1701359 16.4630291,17.1701359 16.267767,16.9748737 L11.8748373,12.5811745 C10.8294388,13.4662797 9.47704791,14 8,14 C4.6862915,14 2,11.3137085 2,8 C2,4.6862915 4.6862915,2 8,2 Z M8,3 C5.23857625,3 3,5.23857625 3,8 C3,10.7614237 5.23857625,13 8,13 C10.7614237,13 13,10.7614237 13,8 C13,5.23857625 10.7614237,3 8,3 Z" id="search"></path>
        </g>
    </g>
</svg>