<?xml version="1.0" encoding="UTF-8"?>
<svg width="6px" height="13px" viewBox="0 0 6 13" version="1.1" xmlns="http://www.w3.org/2000/svg" xmlns:xlink="http://www.w3.org/1999/xlink">
    <!-- Generator: Sketch 64 (93537) - https://sketch.com -->
    <title>sort</title>
    <desc>Created with Sketch.</desc>
    <g id="Symbols" stroke="none" stroke-width="1" fill-rule="evenodd">
        <g id="ico/sort" transform="translate(-7.000000, -3.000000)">
            <path d="M11.9193752,11 C12.4716599,11 12.9193752,11.4477153 12.9193752,12 C12.9193752,12.2270715 12.8420944,12.447382 12.700244,12.624695 L10.7808688,15.023914 C10.4358593,15.4551759 9.80656689,15.5250973 9.37530495,15.1800878 C9.31764025,15.133956 9.26526295,15.0815787 9.21913119,15.023914 L7.29975604,12.624695 C6.95474649,12.1934331 7.02466786,11.5641407 7.4559298,11.2191312 C7.63324285,11.0772808 7.85355335,11 8.08062485,11 L11.9193752,11 Z M9.37530495,3.81991225 C9.80656689,3.4749027 10.4358593,3.54482408 10.7808688,3.97608601 L10.7808688,3.97608601 L12.700244,6.37530495 C12.8420944,6.552618 12.9193752,6.7729285 12.9193752,7 C12.9193752,7.55228475 12.4716599,8 11.9193752,8 L11.9193752,8 L8.08062485,8 C7.85355335,8 7.63324285,7.92271925 7.4559298,7.78086881 C7.02466786,7.43585926 6.95474649,6.80656689 7.29975604,6.37530495 L7.29975604,6.37530495 L9.21913119,3.97608601 C9.26526295,3.91842131 9.31764025,3.86604401 9.37530495,3.81991225 Z" id="sort"></path>
        </g>
    </g>
</svg>